# xmcd
#
# Track frame offsets: 
#        150
#        17799
#        37237
#        60579
#        76851
#        98772
#        113353
#        128765
#        146324
#        163598
#        185540
#        206432
#        224671
#        242521
#        256830
#        276390
#        292040
#        300790
#        317773
#        333034
#        346113
#
# Disc length: 4748 seconds
#
# Revision: 0
# Processed by: cddbd v1.5.2PL0 Copyright (c) Steve Scherf et al.
# Submitted via: ExactAudioCopy v0.99pb4
#
DISCID=22128a15
DTITLE=Various Artist - prevue promo 1126A-2
DYEAR=2003
DGENRE=pop
TTITLE0=Plus One - Be Love
TTITLE1=Tony Rich Project, The - Red Wine(Extended Radio Edit)
TTITLE2=Tom Jones with Portishead - Motherless Child
TTITLE3=Erin O'Donnell - Wide Wide World
TTITLE4=Alicia Keys - You Don't Know My Name(Radio Edit #2)
TTITLE5=Willa Ford feat. May - A Toast To Men(Edited with Intro)
TTITLE6=Willa Ford feat. May - A Toast To Men(Johnny Budz Edited Radio
TTITLE6=Mix)
TTITLE7=Rah Digga - Party and ... (Party and Bullsxxt)(Lyric - "Ultra Cl
TTITLE7=ean Urban Radio Edit")
TTITLE8=Joe Strummer and The Mescaleros - Coma Girl
TTITLE9=Rickie Lee Jones - Second Chance
TTITLE10=Cassandra Wilson - Fragile
TTITLE11=John Eddie - If You're Here When I Get Back
TTITLE12=Sister Hazel - Come Around
TTITLE13=Superchic(k) - I Belong To You
TTITLE14=Basement Jaxx feat. Siouxsie Sioux - Cish Cash
TTITLE15=Thrice - Stare At The Sun
TTITLE16=Poulain - For You To Decide
TTITLE17=Salem - Smoke And Mirrors
TTITLE18=Red Hot Chili Peppers - Fortune Faded
TTITLE19=Recover - Inhale Water
TTITLE20=Anti-Flag - Turncoat
EXTD=
EXTT0=
EXTT1=
EXTT2=
EXTT3=
EXTT4=
EXTT5=
EXTT6=
EXTT7=
EXTT8=
EXTT9=
EXTT10=
EXTT11=
EXTT12=
EXTT13=
EXTT14=
EXTT15=
EXTT16=
EXTT17=
EXTT18=
EXTT19=
EXTT20=
PLAYORDER=
